<svg width="393" height="852" viewBox="0 0 393 852" fill="none" xmlns="http://www.w3.org/2000/svg">
<g clip-path="url(#clip0_1_4172)">
<rect width="393" height="852" fill="url(#paint0_linear_1_4172)"/>
<g filter="url(#filter0_d_1_4172)">
<circle cx="210.5" cy="420.5" r="0.5" fill="#D9D9D9"/>
</g>
<path d="M235.344 389.719H228.337C227.951 389.726 227.58 389.888 227.297 390.176C225.059 386.282 222.744 383.166 220.947 381.207C219.15 379.252 214.759 377.859 209.284 377.024V370.133C204.472 369.459 199.603 369.282 195.95 369.282C192.325 369.282 187.503 369.452 182.722 370.12V377.007C177.191 377.838 172.759 379.235 170.947 381.207C169.159 383.162 166.859 386.259 164.634 390.125C164.362 389.876 164.021 389.735 163.666 389.726H156.656C155.797 389.726 155.094 390.496 155.094 391.429V394.87C155.094 395.803 155.781 396.709 156.625 396.89L160.875 397.775C157.206 406.693 155.044 417.79 158.444 428.908V435.506C158.444 437.39 158.881 438.912 159.422 438.912H167.428C167.969 438.912 168.406 437.39 168.406 435.506V430.111C175.588 430.86 185.75 431.678 195.944 431.678C206.044 431.678 216.319 430.874 223.487 430.131V435.506C223.487 437.39 223.925 438.912 224.462 438.912H232.469C233.006 438.912 233.444 437.39 233.444 435.506L233.437 428.905C236.834 417.8 234.678 406.71 231.016 397.792L235.366 396.89C235.79 396.784 236.171 396.529 236.448 396.163C236.725 395.796 236.883 395.341 236.897 394.866V391.426C236.897 390.976 236.734 390.544 236.443 390.225C236.152 389.906 235.757 389.725 235.344 389.723V389.719ZM168.209 417.402C166.74 417.349 165.347 416.675 164.325 415.523C163.303 414.372 162.732 412.832 162.732 411.23C162.732 409.627 163.303 408.088 164.325 406.936C165.347 405.785 166.74 405.111 168.209 405.058C169.679 405.111 171.071 405.785 172.093 406.937C173.115 408.089 173.686 409.629 173.685 411.231C173.685 412.834 173.113 414.373 172.091 415.525C171.068 416.676 169.679 417.349 168.209 417.402ZM163.447 399.724C166.447 392.24 170.625 386.381 173.156 383.615C174.981 381.623 183.594 379.504 195.944 379.504C208.294 379.504 216.906 381.626 218.734 383.619C221.266 386.378 225.441 392.237 228.441 399.724C221.778 400.527 208.8 398.668 195.947 398.668C183.094 398.668 170.116 400.527 163.447 399.724ZM223.678 417.402C222.209 417.349 220.816 416.675 219.794 415.523C218.772 414.372 218.201 412.832 218.201 411.23C218.201 409.627 218.772 408.088 219.794 406.936C220.816 405.785 222.209 405.111 223.678 405.058C225.147 405.111 226.54 405.785 227.562 406.937C228.583 408.089 229.154 409.629 229.154 411.231C229.154 412.834 228.582 414.373 227.56 415.525C226.537 416.676 225.147 417.349 223.678 417.402Z" fill="white"/>
<path d="M145.027 476.242V471.391H160.25V476.242H155.117V496H150.16V476.242H145.027ZM161.902 496L166.438 475.539H166.965L169.074 485.383L166.754 496H161.902ZM169.391 493.012L170.445 488.16H171.711L167.984 471.391H172.871L178.672 496H173.75L173.047 493.012H169.391ZM179.867 496L184.648 483.309L180.289 471.391H185.105L187.109 476.734L189.113 471.391H193.93L189.57 483.309L194.352 496H189.254L187.109 490.129L184.965 496H179.867ZM196.355 496V471.391H201.312V496H196.355ZM212.211 489.25V477.578C212.422 475.914 213.137 474.449 214.355 473.184C215.645 471.871 217.227 471.215 219.102 471.215V476.172C218.094 476.195 217.473 476.676 217.238 477.613C217.191 477.824 217.168 478 217.168 478.141V489.25C217.191 490.211 217.73 490.844 218.785 491.148C218.926 491.195 219.031 491.219 219.102 491.219V496.176C217.742 496.176 216.383 495.695 215.023 494.734C213.172 493.375 212.234 491.547 212.211 489.25ZM221 496.176V491.219C221.258 491.219 221.586 491.008 221.984 490.586C222.336 490.188 222.512 489.766 222.512 489.32V488.16H221V483.59H227.504V489.812C227.504 491.266 226.754 492.695 225.254 494.102C223.824 495.461 222.406 496.152 221 496.176ZM221 476.172V471.215C222.734 471.215 224.281 471.965 225.641 473.465C226.883 474.801 227.504 476.266 227.504 477.859L222.652 479.652V478.281C222.652 477.18 222.23 476.5 221.387 476.242C221.246 476.195 221.117 476.172 221 476.172ZM230.035 489.145V477.578C230.035 476.336 230.562 475.07 231.617 473.781C233.023 472.094 234.805 471.238 236.961 471.215V476.172C236 476.195 235.367 476.734 235.062 477.789C235.016 477.953 234.992 478.07 234.992 478.141V489.145C234.992 490.105 235.52 490.762 236.574 491.113C236.738 491.16 236.855 491.184 236.926 491.184V496.176C235.59 496.176 234.254 495.695 232.918 494.734C231.02 493.328 230.059 491.465 230.035 489.145ZM238.859 496.176V491.184C239.234 491.184 239.656 490.984 240.125 490.586C240.57 490.188 240.805 489.707 240.828 489.145V478.141C240.828 477.719 240.629 477.273 240.23 476.805C239.855 476.406 239.398 476.195 238.859 476.172V471.215C241.227 471.215 243.125 472.234 244.555 474.273C245.375 475.445 245.785 476.547 245.785 477.578V489.145C245.785 491.746 244.625 493.738 242.305 495.121C241.086 495.824 239.938 496.176 238.859 496.176Z" fill="white"/>
</g>
<defs>
<filter id="filter0_d_1_4172" x="-140" y="74" width="701" height="701" filterUnits="userSpaceOnUse" color-interpolation-filters="sRGB">
<feFlood flood-opacity="0" result="BackgroundImageFix"/>
<feColorMatrix in="SourceAlpha" type="matrix" values="0 0 0 0 0 0 0 0 0 0 0 0 0 0 0 0 0 0 127 0" result="hardAlpha"/>
<feMorphology radius="100" operator="dilate" in="SourceAlpha" result="effect1_dropShadow_1_4172"/>
<feOffset dy="4"/>
<feGaussianBlur stdDeviation="125"/>
<feComposite in2="hardAlpha" operator="out"/>
<feColorMatrix type="matrix" values="0 0 0 0 1 0 0 0 0 1 0 0 0 0 1 0 0 0 1 0"/>
<feBlend mode="normal" in2="BackgroundImageFix" result="effect1_dropShadow_1_4172"/>
<feBlend mode="normal" in="SourceGraphic" in2="effect1_dropShadow_1_4172" result="shape"/>
</filter>
<linearGradient id="paint0_linear_1_4172" x1="393" y1="426" x2="0" y2="426" gradientUnits="userSpaceOnUse">
<stop stop-color="#1D1AD8"/>
<stop offset="1" stop-color="#0F0E72"/>
</linearGradient>
<clipPath id="clip0_1_4172">
<rect width="393" height="852" fill="white"/>
</clipPath>
</defs>
</svg>
