<svg width="25" height="26" viewBox="0 0 25 26" fill="none" xmlns="http://www.w3.org/2000/svg">
<path d="M25 13.0632C25 6.15967 19.4036 0.563232 12.5 0.563232C5.59644 0.563232 0 6.15967 0 13.0632C0 19.9668 5.59644 25.5632 12.5 25.5632C19.4036 25.5632 25 19.9668 25 13.0632Z" fill="#15DE4B"/>
<path d="M14.5792 18.1937C13.885 18.093 13.2251 17.8272 12.6549 17.4187C11.994 16.9585 11.387 16.4255 10.8452 15.8298C10.1619 15.133 9.51741 14.3993 8.9146 13.6319C8.43149 13.0177 8.05881 12.3243 7.81321 11.5825C7.65633 11.1 7.61517 10.5874 7.69307 10.086C7.80282 9.50733 8.103 8.982 8.54585 8.59366C8.72469 8.43368 8.91893 8.29178 9.12571 8.17004C9.24885 8.09179 9.39222 8.05134 9.5381 8.05369C9.68398 8.05603 9.82599 8.10107 9.94655 8.18324C10.5243 8.52702 10.967 9.05802 11.2014 9.6881C11.2416 9.77686 11.2572 9.87475 11.2467 9.9716C11.2362 10.0684 11.1999 10.1607 11.1417 10.2388C10.9965 10.4346 10.8452 10.6256 10.6986 10.8221C10.5695 10.9957 10.4354 11.1694 10.3208 11.3492C10.2618 11.4325 10.2305 11.5323 10.2314 11.6344C10.2323 11.7365 10.2653 11.8357 10.3257 11.918C10.6153 12.3242 10.8958 12.743 11.2104 13.1298C11.7802 13.8351 12.4111 14.4888 13.0958 15.0832C13.2486 15.2145 13.4118 15.3305 13.5743 15.4492C13.6436 15.503 13.7269 15.5358 13.8143 15.5437C13.9017 15.5516 13.9896 15.5342 14.0674 15.4937C14.2417 15.4077 14.4114 15.3127 14.5757 15.2089C14.8035 15.0638 15.0271 14.9145 15.25 14.7707C15.3421 14.7118 15.4487 14.6794 15.558 14.6772C15.6673 14.675 15.7751 14.703 15.8695 14.7582C16.4456 15.0439 16.9155 15.5062 17.2104 16.0777C17.2933 16.2205 17.3307 16.3852 17.3177 16.5498C17.3046 16.7144 17.2418 16.8712 17.1375 16.9992C16.8878 17.3642 16.5548 17.6645 16.1662 17.8755C15.7775 18.0864 15.3442 18.2019 14.9021 18.2124C14.7937 18.2108 14.6855 18.2036 14.5778 18.1909L14.5792 18.1937Z" fill="white"/>
</svg>
