<svg width="127" height="125" viewBox="0 0 127 125" fill="none" xmlns="http://www.w3.org/2000/svg">
<g filter="url(#filter0_d_258_3416)">
<path d="M79.2717 78.1C88.0279 69.4733 88.0279 55.4867 79.2717 46.86C70.5156 38.2333 56.3191 38.2333 47.563 46.86C38.8068 55.4867 38.8068 69.4733 47.563 78.1C56.3191 86.7267 70.5156 86.7267 79.2717 78.1Z" fill="white"/>
</g>
<path d="M68.9667 66.2133L64.6603 61.9707L68.9667 57.728C69.157 57.5405 69.2639 57.2862 69.2639 57.0209C69.2639 56.7557 69.157 56.5014 68.9667 56.3138C68.7763 56.1263 68.5181 56.0209 68.2489 56.0209C67.9797 56.0209 67.7216 56.1263 67.5312 56.3138L63.2249 60.5565L58.9186 56.3138C58.7283 56.1263 58.4701 56.0209 58.2009 56.0209C57.9317 56.0209 57.6735 56.1263 57.4832 56.3138C57.2928 56.5014 57.1859 56.7557 57.1859 57.0209C57.1859 57.2862 57.2928 57.5405 57.4832 57.728L61.7895 61.9707L57.4832 66.2133C57.2928 66.4009 57.1859 66.6552 57.1859 66.9204C57.1859 67.1857 57.2928 67.44 57.4832 67.6275C57.6735 67.8151 57.9317 67.9204 58.2009 67.9204C58.4701 67.9204 58.7283 67.8151 58.9186 67.6275L63.2249 63.3849L67.5312 67.6275C67.7216 67.8151 67.9797 67.9204 68.2489 67.9204C68.5181 67.9204 68.7763 67.8151 68.9667 67.6275C69.157 67.44 69.2639 67.1857 69.2639 66.9204C69.2639 66.6552 69.157 66.4009 68.9667 66.2133Z" fill="#EB001B"/>
<defs>
<filter id="filter0_d_258_3416" x="30.9549" y="35.3694" width="64.9248" height="64.262" filterUnits="userSpaceOnUse" color-interpolation-filters="sRGB">
<feFlood flood-opacity="0" result="BackgroundImageFix"/>
<feColorMatrix in="SourceAlpha" type="matrix" values="0 0 0 0 0 0 0 0 0 0 0 0 0 0 0 0 0 0 127 0" result="hardAlpha"/>
<feOffset dy="5.02046"/>
<feGaussianBlur stdDeviation="5.02046"/>
<feColorMatrix type="matrix" values="0 0 0 0 0 0 0 0 0 0 0 0 0 0 0 0 0 0 0.102 0"/>
<feBlend mode="normal" in2="BackgroundImageFix" result="effect1_dropShadow_258_3416"/>
<feBlend mode="normal" in="SourceGraphic" in2="effect1_dropShadow_258_3416" result="shape"/>
</filter>
</defs>
</svg>
