<svg width="25" height="26" viewBox="0 0 25 26" fill="none" xmlns="http://www.w3.org/2000/svg">
<path d="M25 13.0632C25 6.15967 19.4036 0.563232 12.5 0.563232C5.59644 0.563232 0 6.15967 0 13.0632C0 19.9668 5.59644 25.5632 12.5 25.5632C19.4036 25.5632 25 19.9668 25 13.0632Z" fill="#3422F2"/>
<path d="M12.4 6.43188C15.6052 6.43188 18.4 9.07788 18.4 12.1319C18.4 15.1343 15.6682 17.4971 12.4 17.4971C11.701 17.4976 11.0063 17.387 10.342 17.1695C10.0636 17.4395 9.96822 17.5313 9.37722 18.1013C8.95122 18.4229 8.55042 18.5321 8.19222 18.3293C7.83102 18.1253 7.72242 17.7281 7.79622 17.2049L8.03622 15.8135C6.99402 14.8331 6.40002 13.5371 6.40002 12.1319C6.40002 9.07788 9.19422 6.43188 12.4 6.43188ZM12.4 7.27188C9.64842 7.27188 7.24002 9.55188 7.24002 12.1319C7.24002 13.3589 7.78722 14.4887 8.75202 15.3299L8.76402 15.3401L8.94222 15.4949L8.90202 15.7289L8.81922 16.2113L8.79702 16.3397L8.62602 17.3345C8.61623 17.4015 8.61022 17.469 8.60802 17.5367V17.5937C8.60802 17.5965 8.60762 17.5981 8.60682 17.5985C8.61102 17.5925 8.69262 17.5667 8.83242 17.4647L10.1344 16.2011L10.3828 16.2947C11.0281 16.5353 11.7113 16.6583 12.4 16.6577C15.2296 16.6577 17.56 14.6417 17.56 12.1319C17.56 9.55248 15.1516 7.27188 12.4 7.27188ZM9.53622 11.1197C9.6571 11.1153 9.77762 11.1353 9.8906 11.1785C10.0036 11.2217 10.1067 11.2872 10.1938 11.3712C10.2808 11.4551 10.3501 11.5558 10.3974 11.6671C10.4447 11.7784 10.4691 11.8981 10.4691 12.0191C10.4691 12.14 10.4447 12.2598 10.3974 12.3711C10.3501 12.4824 10.2808 12.583 10.1938 12.667C10.1067 12.7509 10.0036 12.8165 9.8906 12.8597C9.77762 12.9029 9.6571 12.9229 9.53622 12.9185C9.30337 12.91 9.0829 12.8115 8.92117 12.6438C8.75945 12.476 8.66908 12.2521 8.66908 12.0191C8.66908 11.7861 8.75945 11.5622 8.92117 11.3944C9.0829 11.2267 9.30337 11.1282 9.53622 11.1197ZM12.535 11.1197C12.6559 11.1153 12.7764 11.1353 12.8894 11.1785C13.0024 11.2217 13.1055 11.2872 13.1926 11.3712C13.2796 11.4551 13.3489 11.5558 13.3962 11.6671C13.4435 11.7784 13.4679 11.8981 13.4679 12.0191C13.4679 12.14 13.4435 12.2598 13.3962 12.3711C13.3489 12.4824 13.2796 12.583 13.1926 12.667C13.1055 12.7509 13.0024 12.8165 12.8894 12.8597C12.7764 12.9029 12.6559 12.9229 12.535 12.9185C12.3022 12.91 12.0817 12.8115 11.92 12.6438C11.7582 12.476 11.6679 12.2521 11.6679 12.0191C11.6679 11.7861 11.7582 11.5622 11.92 11.3944C12.0817 11.2267 12.3022 11.1282 12.535 11.1197ZM15.5332 11.1197C15.6541 11.1153 15.7746 11.1353 15.8876 11.1785C16.0006 11.2217 16.1037 11.2872 16.1908 11.3712C16.2778 11.4551 16.3471 11.5558 16.3944 11.6671C16.4417 11.7784 16.4661 11.8981 16.4661 12.0191C16.4661 12.14 16.4417 12.2598 16.3944 12.3711C16.3471 12.4824 16.2778 12.583 16.1908 12.667C16.1037 12.7509 16.0006 12.8165 15.8876 12.8597C15.7746 12.9029 15.6541 12.9229 15.5332 12.9185C15.3004 12.91 15.0799 12.8115 14.9182 12.6438C14.7564 12.476 14.6661 12.2521 14.6661 12.0191C14.6661 11.7861 14.7564 11.5622 14.9182 11.3944C15.0799 11.2267 15.3004 11.1282 15.5332 11.1197Z" fill="#F8F8FF"/>
</svg>
